<?xml version="1.0" encoding="utf-8"?>
<!-- Generator: Adobe Illustrator 18.0.0, SVG Export Plug-In . SVG Version: 6.00 Build 0)  -->
<!DOCTYPE svg PUBLIC "-//W3C//DTD SVG 1.1//EN" "http://www.w3.org/Graphics/SVG/1.1/DTD/svg11.dtd">
<svg version="1.1" id="Calque_1" xmlns="http://www.w3.org/2000/svg" xmlns:xlink="http://www.w3.org/1999/xlink" x="0px" y="0px"
	 viewBox="0 0 850.4 850.4" enable-background="new 0 0 850.4 850.4" xml:space="preserve">
<title>Facebook-color</title>
<desc>Created with Sketch.</desc>
<g id="Icons">
	<g id="Color-" transform="translate(-200.000000, -160.000000)">
		<path id="Facebook" fill="#4460A0" d="M653.5,1010.4H246.1c-26.6,0-46.1-21.3-46.1-46.1V207.8c0-26.6,21.3-46.1,46.1-46.1h756.5
			c26.6,0,46.1,21.3,46.1,46.1v756.5c0,26.6-21.3,46.1-46.1,46.1H786.4V680.9h109.8l15.9-127.6H784.6v-81.5c0-37.2,10.6-62,63.8-62
			h67.3V294.6c-12.4-1.8-51.4-5.3-99.2-5.3c-97.4,0-164.8,60.2-164.8,170.1v93.9H540.2v127.6h111.6v329.5H653.5z"/>
	</g>
</g>
</svg>
